HIERARCHY
ROOT joint_Root
{
  OFFSET 0 0 0
  CHANNELS 6 Xposition Yposition Zposition Zrotation Xrotation Yrotation
  JOINT Hips
  {
    OFFSET 0.847027 93.984 -452.225
    CHANNELS 6 Xposition Yposition Zposition Zrotation Xrotation Yrotation
    JOINT Spine
    {
      OFFSET 15.7357 0 0
      CHANNELS 6 Xposition Yposition Zposition Zrotation Xrotation Yrotation
      JOINT Chest
      {
        OFFSET 8.98455 -0.406207 0
        CHANNELS 6 Xposition Yposition Zposition Zrotation Xrotation Yrotation
        JOINT Neck
        {
          OFFSET 16.3773 0 0
          CHANNELS 6 Xposition Yposition Zposition Zrotation Xrotation Yrotation
          JOINT Head
          {
            OFFSET 6.45672 0 0
            CHANNELS 6 Xposition Yposition Zposition Zrotation Xrotation Yrotation
            End Site
            {
              OFFSET 0 0 0
            }
          }
        }
        JOINT Shoulder_L
        {
          OFFSET 12.9942 -0.242716 4.98039
          CHANNELS 6 Xposition Yposition Zposition Zrotation Xrotation Yrotation
          JOINT UpperArm_L
          {
            OFFSET 5.34809 0 0
            CHANNELS 6 Xposition Yposition Zposition Zrotation Xrotation Yrotation
            JOINT LowerArm_L
            {
              OFFSET 24.3286 1.87007e-05 0
              CHANNELS 6 Xposition Yposition Zposition Zrotation Xrotation Yrotation
              JOINT Hand_L
              {
                OFFSET 22.2916 0 0
                CHANNELS 6 Xposition Yposition Zposition Zrotation Xrotation Yrotation
                End Site
                {
                  OFFSET 0 0 0
                }
              }
            }
          }
        }
        JOINT Shoulder_R
        {
          OFFSET 12.9945 -0.242716 -4.98039
          CHANNELS 6 Xposition Yposition Zposition Zrotation Xrotation Yrotation
          JOINT UpperArm_R
          {
            OFFSET -5.34813 0 0
            CHANNELS 6 Xposition Yposition Zposition Zrotation Xrotation Yrotation
            JOINT LowerArm_R
            {
              OFFSET -24.3289 0.000322201 0
              CHANNELS 6 Xposition Yposition Zposition Zrotation Xrotation Yrotation
              JOINT Hand_R
              {
                OFFSET -22.2915 -0.000108084 0
                CHANNELS 6 Xposition Yposition Zposition Zrotation Xrotation Yrotation
                End Site
                {
                  OFFSET 0 0 0
                }
              }
            }
          }
        }
      }
    }
    JOINT UpperLeg_L
    {
      OFFSET -2.19248 -6.46944 0
      CHANNELS 6 Xposition Yposition Zposition Zrotation Xrotation Yrotation
      JOINT LowerLeg_L
      {
        OFFSET 39.0811 0 -1.23785e-05
        CHANNELS 6 Xposition Yposition Zposition Zrotation Xrotation Yrotation
        JOINT Foot_L
        {
          OFFSET 40.9854 0 -1.26872e-05
          CHANNELS 6 Xposition Yposition Zposition Zrotation Xrotation Yrotation
          JOINT Toes_L
          {
            OFFSET 11.7543 0 0
            CHANNELS 6 Xposition Yposition Zposition Zrotation Xrotation Yrotation
            End Site
            {
              OFFSET 0 0 0
            }
          }
        }
      }
    }
    JOINT UpperLeg_R
    {
      OFFSET -2.19251 6.46944 0
      CHANNELS 6 Xposition Yposition Zposition Zrotation Xrotation Yrotation
      JOINT LowerLeg_R
      {
        OFFSET -39.0811 -0.00228153 -0.0401928
        CHANNELS 6 Xposition Yposition Zposition Zrotation Xrotation Yrotation
        JOINT Foot_R
        {
          OFFSET -40.9854 0 0
          CHANNELS 6 Xposition Yposition Zposition Zrotation Xrotation Yrotation
          JOINT Toes_R
          {
            OFFSET -11.7543 0 0
            CHANNELS 6 Xposition Yposition Zposition Zrotation Xrotation Yrotation
            End Site
            {
              OFFSET 0 0 0
            }
          }
        }
      }
    }
  }
}
MOTION
Frames:	8
Frame Time:	0.0333333
0 0 0 0 0 -0 -1.3462 85.35 26.9688 91.5006 1.80605 -6.96404 15.7357 5.1072e-06 -5.51765e-07 87.4917 85.3335 -86.1876 8.98455 -0.406207 -4.3199e-07 1.56474 -0.478768 2.61255 16.3773 -1.3905e-06 -6.99897e-07 -5.12943 -4.47856 3.03743 6.45672 -1.25837e-06 -1.02172e-07 -13.2824 -3.51418 4.18932 12.9942 -0.242716 4.98039 -91.3985 5.15836 -89.8086 5.34809 -7.22636e-06 -6.2814e-07 -72.0217 4.35854 9.97582 24.3286 1.87007e-05 4.90208e-06 0.0552421 1.03069 -3.64381 22.2916 -9.88446e-07 4.63217e-06 15.4317 5.50055 -6.48252 12.9945 -0.242716 -4.98039 87.6827 15.1923 -96.2234 -5.34813 -1.25947e-06 -3.79883e-06 -57.2075 0.661752 -6.92401 -24.3289 0.000322201 -8.65921e-06 3.66267 5.73984 -32.6176 -22.2915 -0.000108084 -4.47941e-06 13.6821 5.21625 2.31438 -2.19248 -6.46944 -1.22534e-07 -172.088 3.48649 -27.5581 39.0811 -6.73843e-06 -1.23785e-05 0.543301 0.10698 101.828 40.9854 -6.48686e-06 -1.26872e-05 4.51634 1.2808 -36.0059 11.7543 -2.30145e-07 3.05095e-06 0.114523 -0.188124 -19.8872 -2.19251 6.46944 -1.45247e-06 177.891 5.5181 160.761 -39.0811 -0.00228153 -0.0401928 0.0959305 -0.0422377 50.8886 -40.9854 7.72618e-06 5.99936e-06 2.82346 0.450644 -82.4225 -11.7543 -5.6619e-06 -5.58687e-06 -1.10017 -1.79662 -22.4719 
0 0 0 0 0 -0 -1.10555 87.6994 33.2256 92.0049 -0.12792 -8.1863 15.7357 5.1072e-06 -5.51765e-07 101.602 85.5644 -101.191 8.98455 -0.406207 -4.3199e-07 0.918256 1.75884 0.807426 16.3773 -1.3905e-06 -6.99897e-07 -6.14142 -4.82804 3.34309 6.45672 -1.25837e-06 -1.02172e-07 -13.1141 -5.49945 5.68794 12.9942 -0.242716 4.98039 -90.9972 3.54613 -89.2786 5.34809 -7.22636e-06 -6.2814e-07 -68.1308 -6.03671 16.4588 24.3286 1.87007e-05 4.90208e-06 -0.0775287 11.5199 0.00724947 22.2916 -9.88446e-07 4.63217e-06 12.7676 5.36441 -1.3484 12.9945 -0.242716 -4.98039 88.2598 13.2691 -97.4606 -5.34813 -1.25947e-06 -3.79883e-06 -58.1366 2.86066 -12.408 -24.3289 0.000322201 -8.65921e-06 6.7049 7.58928 -41.6399 -22.2915 -0.000108084 -4.47941e-06 16.1947 5.25101 1.41493 -2.19248 -6.46944 -1.22534e-07 -174.209 2.84896 -34.4583 39.0811 -6.73843e-06 -1.23785e-05 0.482965 0.0697906 99.1851 40.9854 -6.48686e-06 -1.26872e-05 4.99097 1.19037 -40.7751 11.7543 -2.30145e-07 3.05095e-06 0.117449 -0.193257 -19.976 -2.19251 6.46944 -1.45247e-06 176.478 4.22887 167.268 -39.0811 -0.00228153 -0.0401928 0.0612981 -0.0244817 42.1638 -40.9854 7.72618e-06 5.99936e-06 2.29577 2.25715 -75.3548 -11.7543 -5.6619e-06 -5.58687e-06 0.050193 -1.38947 -25.2138 
0 0 0 0 0 -0 -0.683816 90.8819 39.5919 93.0638 -2.55558 -10.6946 15.7357 5.1072e-06 -5.51765e-07 118.237 85.8175 -119.13 8.98455 -0.406207 -4.3199e-07 -0.363532 4.02013 -1.77299 16.3773 -1.3905e-06 -6.99897e-07 -6.92597 -4.91986 3.40429 6.45672 -1.25837e-06 -1.02172e-07 -14.4885 -7.48556 6.57566 12.9942 -0.242716 4.98039 -90.4934 1.65874 -88.4226 5.34809 -7.22636e-06 -6.2814e-07 -62.6086 -13.2602 22.9159 24.3286 1.87007e-05 4.90208e-06 -0.065123 14.0913 0.00616776 22.2916 -9.88446e-07 4.63217e-06 12.8669 5.24695 1.82471 12.9945 -0.242716 -4.98039 88.824 10.624 -98.6489 -5.34813 -1.25947e-06 -3.79883e-06 -59.6249 4.65484 -15.8663 -24.3289 0.000322201 -8.65921e-06 9.90765 8.42322 -50.0228 -22.2915 -0.000108084 -4.47941e-06 19.934 5.26807 0.958565 -2.19248 -6.46944 -1.22534e-07 -177.267 2.16816 -39.6191 39.0811 -6.73843e-06 -1.23785e-05 0.396183 -0.0108126 89.6329 40.9854 -6.48686e-06 -1.26872e-05 4.19052 -0.961778 -45.6307 11.7543 -2.30145e-07 3.05095e-06 0.119423 -0.196748 -20.0362 -2.19251 6.46944 -1.45247e-06 174.174 4.44992 171.801 -39.0811 -0.00228153 -0.0401928 0.0612061 -0.0508345 32.2332 -40.9854 7.72618e-06 5.99936e-06 2.56561 5.44065 -61.9598 -11.7543 -5.6619e-06 -5.58687e-06 1.23575 -1.84731 -32.9577 
0 0 0 0 0 -0 -0.293033 93.7961 45.9942 93.9185 -4.32808 -13.2587 15.7357 5.1072e-06 -5.51765e-07 133.402 86.015 -135.565 8.98455 -0.406207 -4.3199e-07 -1.86799 5.65671 -4.2365 16.3773 -1.3905e-06 -6.99897e-07 -7.01109 -4.94389 2.9547 6.45672 -1.25837e-06 -1.02172e-07 -15.4287 -8.97551 6.54381 12.9942 -0.242716 4.98039 -89.8433 -0.509214 -87.9073 5.34809 -7.22636e-06 -6.2814e-07 -58.2139 -16.896 28.0116 24.3286 1.87007e-05 4.90208e-06 0.0997307 11.3259 -0.505144 22.2916 -9.88446e-07 4.63217e-06 17.2228 5.23868 1.77204 12.9945 -0.242716 -4.98039 89.1981 8.53697 -99.6139 -5.34813 -1.25947e-06 -3.79883e-06 -61.4497 5.4068 -18.1816 -24.3289 0.000322201 -8.65921e-06 8.64758 6.41986 -53.6834 -22.2915 -0.000108084 -4.47941e-06 20.5229 5.29279 0.27016 -2.19248 -6.46944 -1.22534e-07 -179.593 1.34088 -42.631 39.0811 -6.73843e-06 -1.23785e-05 0.291861 -0.0840944 75.3793 40.9854 -6.48686e-06 -1.26872e-05 3.24043 -4.20719 -48.7992 11.7543 -2.30145e-07 3.05095e-06 0.13391 -0.222538 -20.4805 -2.19251 6.46944 -1.45247e-06 171.716 7.84202 174.85 -39.0811 -0.00228153 -0.0401928 0.0678864 -0.107669 24.5714 -40.9854 7.72618e-06 5.99936e-06 1.4612 11.2343 -48.0601 -11.7543 -5.6619e-06 -5.58687e-06 1.19756 -1.76876 -32.3166 
0 0 0 0 0 -0 -0.45493 95.6847 52.6991 93.2913 -3.66412 -14.4972 15.7357 5.1072e-06 -5.51765e-07 138.852 86.2993 -141.456 8.98455 -0.406207 -4.3199e-07 -2.76443 5.81044 -5.07349 16.3773 -1.3905e-06 -6.99897e-07 -6.66697 -4.87784 1.6512 6.45672 -1.25837e-06 -1.02172e-07 -15.1705 -10.0539 5.79486 12.9942 -0.242716 4.98039 -89.7217 -0.888353 -87.6017 5.34809 -7.22636e-06 -6.2814e-07 -54.9181 -16.2227 29.6469 24.3286 1.87007e-05 4.90208e-06 -0.0802978 8.37724 0.0074666 22.2916 -9.88446e-07 4.63217e-06 23.8757 5.29215 0.69333 12.9945 -0.242716 -4.98039 89.1494 8.79169 -99.4521 -5.34813 -1.25947e-06 -3.79883e-06 -61.2652 6.613 -19.9775 -24.3289 0.000322201 -8.65921e-06 6.99311 5.34196 -52.8078 -22.2915 -0.000108084 -4.47941e-06 18.8892 5.33012 -0.793528 -2.19248 -6.46944 -1.22534e-07 -179.379 0.807096 -41.9044 39.0811 -6.73843e-06 -1.23785e-05 0.168797 -0.113294 57.8356 40.9854 -6.48686e-06 -1.26872e-05 2.43497 -4.27605 -51.6052 11.7543 -2.30145e-07 3.05095e-06 0.128629 -0.213081 -20.3177 -2.19251 6.46944 -1.45247e-06 171.901 8.93671 177.078 -39.0811 -0.00228153 -0.0401928 0.0962552 -0.169843 25.2658 -40.9854 7.72618e-06 5.99936e-06 -0.127096 7.55204 -40.2073 -11.7543 -5.6619e-06 -5.58687e-06 0.432936 -0.525829 -21.5832 
0 0 0 0 0 -0 -0.757262 95.7921 59.9233 91.627 -2.8002 -13.4081 15.7357 5.1072e-06 -5.51765e-07 138.566 86.1242 -140.984 8.98455 -0.406207 -4.3199e-07 -2.51014 6.02632 -4.70709 16.3773 -1.3905e-06 -6.99897e-07 -5.97863 -4.73985 0.417053 6.45672 -1.25837e-06 -1.02172e-07 -14.3121 -10.6905 3.84698 12.9942 -0.242716 4.98039 -90.0263 0.0839352 -87.5804 5.34809 -7.22636e-06 -6.2814e-07 -52.1852 -15.0403 29.0415 24.3286 1.87007e-05 4.90208e-06 -0.166971 8.62333 0.0156283 22.2916 -9.88446e-07 4.63217e-06 27.0459 5.30044 0.894896 12.9945 -0.242716 -4.98039 89.0406 9.59533 -99.2628 -5.34813 -1.25947e-06 -3.79883e-06 -62.0665 6.82109 -18.5898 -24.3289 0.000322201 -8.65921e-06 7.26309 6.13847 -50.0065 -22.2915 -0.000108084 -4.47941e-06 18.0826 5.33797 -1.01886 -2.19248 -6.46944 -1.22534e-07 -178.115 -0.74008 -37.403 39.0811 -6.73843e-06 -1.23785e-05 0.0735464 -0.0836543 40.7938 40.9854 -6.48686e-06 -1.26872e-05 0.597972 -0.319941 -55.7916 11.7543 -2.30145e-07 3.05095e-06 0.140281 -0.234018 -20.6778 -2.19251 6.46944 -1.45247e-06 173.018 8.13498 178.651 -39.0811 -0.00228153 -0.0401928 0.176727 -0.211534 35.5192 -40.9854 7.72618e-06 5.99936e-06 -0.156761 3.15779 -39.6571 -11.7543 -5.6619e-06 -5.58687e-06 0.450927 -0.549826 -21.8035 
0 0 0 0 0 -0 -0.874616 94.6434 67.6234 89.6223 -2.28989 -10.5824 15.7357 5.1072e-06 -5.51765e-07 130.938 85.5756 -132.889 8.98455 -0.406207 -4.3199e-07 -0.977243 5.94566 -3.85353 16.3773 -1.3905e-06 -6.99897e-07 -5.05936 -4.53933 -0.176067 6.45672 -1.25837e-06 -1.02172e-07 -14.0738 -10.8019 2.15944 12.9942 -0.242716 4.98039 -90.2162 0.681992 -87.4205 5.34809 -7.22636e-06 -6.2814e-07 -51.8762 -15.6316 26.2066 24.3286 1.87007e-05 4.90208e-06 -0.107349 8.61647 0.0101618 22.2916 -9.88446e-07 4.63217e-06 25.8707 5.29893 0.633126 12.9945 -0.242716 -4.98039 88.9693 10.3781 -99.2969 -5.34813 -1.25947e-06 -3.79883e-06 -63.1322 7.28333 -14.6888 -24.3289 0.000322201 -8.65921e-06 5.72058 5.46004 -46.4719 -22.2915 -0.000108084 -4.47941e-06 17.6472 5.31876 -0.458283 -2.19248 -6.46944 -1.22534e-07 -176.776 -2.42756 -32.4444 39.0811 -6.73843e-06 -1.23785e-05 0.0183863 -0.0203278 29.9579 40.9854 -6.48686e-06 -1.26872e-05 -3.15577 1.16492 -51.7957 11.7543 -2.30145e-07 3.05095e-06 0.146126 -0.244678 -20.8605 -2.19251 6.46944 -1.45247e-06 174.758 4.69244 -179.724 -39.0811 -0.00228153 -0.0401928 0.279754 -0.210631 49.0733 -40.9854 7.72618e-06 5.99936e-06 -1.95971 1.30806 -38.3622 -11.7543 -5.6619e-06 -5.58687e-06 0.412618 -0.49894 -21.3354 
0 0 0 0 0 -0 -0.503166 92.552 75.0283 88.8563 -1.75379 -9.09424 15.7357 5.1072e-06 -5.51765e-07 121.976 85.6249 -123.605 8.98455 -0.406207 -4.3199e-07 -0.272324 4.7469 -3.24728 16.3773 -1.3905e-06 -6.99897e-07 -3.76819 -4.20959 -0.601656 6.45672 -1.25837e-06 -1.02172e-07 -14.1632 -10.0762 0.909211 12.9942 -0.242716 4.98039 -90.5918 1.82712 -87.0513 5.34809 -7.22636e-06 -6.2814e-07 -53.2231 -17.2743 21.95 24.3286 1.87007e-05 4.90208e-06 0.0578921 7.13576 -0.469387 22.2916 -9.88446e-07 4.63217e-06 23.0894 5.29226 0.274786 12.9945 -0.242716 -4.98039 88.7296 11.5806 -98.6971 -5.34813 -1.25947e-06 -3.79883e-06 -62.7847 9.04552 -10.0062 -24.3289 0.000322201 -8.65921e-06 5.01961 5.54231 -42.2925 -22.2915 -0.000108084 -4.47941e-06 15.0284 5.31404 -0.322211 -2.19248 -6.46944 -1.22534e-07 -177.616 -3.48951 -31.3644 39.0811 -6.73843e-06 -1.23785e-05 0.0223487 -0.0250884 29.9126 40.9854 -6.48686e-06 -1.26872e-05 -1.93888 0.33557 -48.0177 11.7543 -2.30145e-07 3.05095e-06 0.745215 0.48902 -22.0741 -2.19251 6.46944 -1.45247e-06 175.113 2.65766 177.523 -39.0811 -0.00228153 -0.0401928 0.445873 -0.178347 66.0818 -40.9854 7.72618e-06 5.99936e-06 -3.33703 0.849006 -35.3088 -11.7543 -5.6619e-06 -5.58687e-06 0.391418 -0.471145 -21.0785 
